<?xml version="1.0" encoding="utf-8"?>
<!-- Generator: Adobe Illustrator 18.0.0, SVG Export Plug-In . SVG Version: 6.00 Build 0)  -->
<!DOCTYPE svg PUBLIC "-//W3C//DTD SVG 1.1//EN" "http://www.w3.org/Graphics/SVG/1.1/DTD/svg11.dtd">
<svg version="1.1" id="Camada_1" xmlns="http://www.w3.org/2000/svg" xmlns:xlink="http://www.w3.org/1999/xlink" x="0px" y="0px"
	 viewBox="0 0 120 23" enable-background="new 0 0 120 23" xml:space="preserve">
<path fill="#F64C3C" d="M7.4,5.1c0-0.1-0.1-0.2-0.1-0.3L6.6,4.1C6.5,4,6.4,4,6.3,4S6.1,4,6,4.1l-5.9,6C0.1,10.2,0,10.3,0,10.4
	c0,0.1,0.1,0.2,0.1,0.3l5.9,6c0.1,0.1,0.2,0.1,0.3,0.1s0.2-0.1,0.3-0.1l0.6-0.6c0.1-0.1,0.1-0.2,0.1-0.3c0-0.1-0.1-0.2-0.1-0.3
	l-5-5.1l5-5.1C7.3,5.3,7.4,5.2,7.4,5.1z"/>
<rect x="116" fill="#F64C3C" width="4" height="23"/>
<g>
	<path fill="#202020" d="M17.8,3.3h3.6l1.8,7.1c0.4,1.7,0.7,3.2,1.2,4.9h0.1c0.5-1.7,0.8-3.2,1.2-4.9l1.8-7.1h3.4l-4.5,15.3h-4
		L17.8,3.3z"/>
	<path fill="#202020" d="M33.8,10.9c0-5,2.8-7.9,6.8-7.9c4,0,6.8,2.9,6.8,7.9c0,5-2.7,8-6.8,8C36.5,18.9,33.8,15.9,33.8,10.9z
		 M43.8,10.9c0-3-1.3-4.9-3.3-4.9c-2,0-3.3,1.8-3.3,4.9c0,3.1,1.3,5,3.3,5C42.5,15.9,43.8,14,43.8,10.9z"/>
	<path fill="#202020" d="M52.3,3.3h3.4v12.4h5.9v2.9h-9.2V3.3z"/>
	<path fill="#202020" d="M66.6,6.2h-4.1V3.3H74v2.9h-4.1v12.4h-3.4V6.2z"/>
	<path fill="#202020" d="M84.7,15h-4.6l-0.9,3.6h-3.4l4.7-15.3h4l4.7,15.3h-3.6L84.7,15z M84,12.3l-0.4-1.4
		c-0.4-1.5-0.8-3.3-1.2-4.9h-0.1c-0.3,1.6-0.8,3.4-1.2,4.9l-0.4,1.4H84z"/>
	<path fill="#202020" d="M101,18.6l-2.9-5.5h-1.8v5.5H93V3.3h5.4c3.1,0,5.7,1.1,5.7,4.8c0,2.3-1.1,3.7-2.6,4.4l3.4,6.1H101z
		 M96.3,10.4h1.7c1.8,0,2.7-0.8,2.7-2.3s-1-2-2.7-2h-1.7V10.4z"/>
</g>
</svg>
