<?xml version="1.0" encoding="utf-8"?>
<!-- Generator: Adobe Illustrator 18.0.0, SVG Export Plug-In . SVG Version: 6.00 Build 0)  -->
<!DOCTYPE svg PUBLIC "-//W3C//DTD SVG 1.1//EN" "http://www.w3.org/Graphics/SVG/1.1/DTD/svg11.dtd">
<svg version="1.1" id="Camada_1" xmlns="http://www.w3.org/2000/svg" xmlns:xlink="http://www.w3.org/1999/xlink" x="0px" y="0px"
	 viewBox="0 0 14 21" enable-background="new 0 0 14 21" xml:space="preserve">
<path fill="#323232" d="M5.6,1l1,2.1c0.3,0.7,0.1,1.7-0.5,2.1L4.9,5.9C4.7,6,4.6,6.3,4.7,6.6l2,4.2l2.1,4.3c0.1,0.1,0.2,0.2,0.3,0.3
	c0.2,0.1,1.1,0,1.9-0.1l0.2,0c0.8-0.1,1.7,0.5,2,1.2l0.6,1.5c0.3,0.7,0,1.7-0.7,2.1c-5.3,2.8-7.3-2.3-7.3-2.3l-2.6-5.5L0.6,7
	c0,0-2.7-4.8,2.9-6.9C4.3-0.2,5.3,0.2,5.6,1z"/>
</svg>
