<?xml version="1.0" encoding="utf-8"?>
<!-- Generator: Adobe Illustrator 18.0.0, SVG Export Plug-In . SVG Version: 6.00 Build 0)  -->
<!DOCTYPE svg PUBLIC "-//W3C//DTD SVG 1.1//EN" "http://www.w3.org/Graphics/SVG/1.1/DTD/svg11.dtd">
<svg version="1.1" id="Camada_1" xmlns="http://www.w3.org/2000/svg" xmlns:xlink="http://www.w3.org/1999/xlink" x="0px" y="0px"
	 viewBox="0 0 19 13" enable-background="new 0 0 19 13" xml:space="preserve">
<path fill-rule="evenodd" clip-rule="evenodd" fill="#323232" d="M13,5.8l5.8-5.6C18.9,0.4,19,0.6,19,0.9v11.2
	c0,0.2-0.1,0.4-0.2,0.6L13,5.8z M0.3,0.2C0.5,0.1,0.7,0,0.9,0h17.2c0.2,0,0.4,0.1,0.6,0.2L9.5,7.4L0.3,0.2z M0.2,12.7
	C0.1,12.6,0,12.3,0,12.1V0.9c0-0.2,0.1-0.5,0.3-0.6L6,5.8L0.2,12.7z M9.5,9.2l2.4-2.3l6.8,5.9c-0.2,0.1-0.4,0.2-0.6,0.2H0.9
	c-0.2,0-0.5-0.1-0.6-0.2l6.8-5.9L9.5,9.2z"/>
</svg>
