<?xml version="1.0" encoding="utf-8"?>
<!-- Generator: Adobe Illustrator 18.0.0, SVG Export Plug-In . SVG Version: 6.00 Build 0)  -->
<!DOCTYPE svg PUBLIC "-//W3C//DTD SVG 1.1//EN" "http://www.w3.org/Graphics/SVG/1.1/DTD/svg11.dtd">
<svg version="1.1" id="Camada_1" xmlns="http://www.w3.org/2000/svg" xmlns:xlink="http://www.w3.org/1999/xlink" x="0px" y="0px"
	 viewBox="0 0 45.1 45.1" enable-background="new 0 0 45.1 45.1" xml:space="preserve">
<path fill="#F64C3C" d="M44.1,0.1H1c-0.5,0-1,0.4-1,1v43c0,0.5,0.4,1,1,1h43.1c0.5,0,1-0.4,1-1v-43C45.1,0.5,44.7,0.1,44.1,0.1z"/>
<path fill="#FFFFFF" d="M16.1,31.4c0,0.2,0.1,0.3,0.2,0.5l1,1c0.1,0.1,0.3,0.2,0.5,0.2c0.2,0,0.3-0.1,0.5-0.2l9.3-9.3
	c0.1-0.1,0.2-0.3,0.2-0.5c0-0.2-0.1-0.3-0.2-0.5l-9.3-9.3c-0.1-0.1-0.3-0.2-0.5-0.2c-0.2,0-0.3,0.1-0.5,0.2l-1,1
	c-0.1,0.1-0.2,0.3-0.2,0.5c0,0.2,0.1,0.3,0.2,0.5l7.9,7.9l-7.9,7.9C16.2,31,16.1,31.2,16.1,31.4z"/>
</svg>
